<?xml version="1.0" encoding="UTF-8"?>
<svg version="1.1" xmlns="http://www.w3.org/2000/svg" width="48" height="48">
<path d="M0 0 C15.84 0 31.68 0 48 0 C48 15.84 48 31.68 48 48 C32.16 48 16.32 48 0 48 C0 32.16 0 16.32 0 0 Z " fill="#0D0C02" transform="translate(0,0)"/>
<path d="M0 0 C0 8.25 0 16.5 0 25 C-8.25 25 -16.5 25 -25 25 C-25 18.73 -25 12.46 -25 6 C-21.20909078 4.99705079 -17.4173401 3.99751126 -13.625 3 C-12.54476562 2.71382812 -11.46453125 2.42765625 -10.3515625 2.1328125 C-8.8046875 1.72675781 -8.8046875 1.72675781 -7.2265625 1.3125 C-6.27346191 1.06113281 -5.32036133 0.80976563 -4.33837891 0.55078125 C-2 0 -2 0 0 0 Z " fill="#FCE206" transform="translate(48,23)"/>
<path d="M0 0 C6.27 0 12.54 0 19 0 C19 5.61 19 11.22 19 17 C16.6075 17.66 14.215 18.32 11.75 19 C11.00331055 19.20882813 10.25662109 19.41765625 9.48730469 19.6328125 C6.15928812 20.53508273 3.47672588 21 0 21 C0 14.07 0 7.14 0 0 Z " fill="#FDFDFD" transform="translate(29,0)"/>
<path d="M0 0 C1.98 0 3.96 0 6 0 C5.67 1.32 5.34 2.64 5 4 C5.99 4 6.98 4 8 4 C9.89559434 8.20327441 11.07988583 11.39942914 12 16 C7.38 16 2.76 16 -2 16 C-2.18059336 10.13071596 -1.89091945 5.55457588 0 0 Z " fill="#F7DE06" transform="translate(2,32)"/>
<path d="M0 0 C5.28 0 10.56 0 16 0 C16 0.99 16 1.98 16 3 C16.99 3 17.98 3 19 3 C18.67 4.65 18.34 6.3 18 8 C15.03 7.505 15.03 7.505 12 7 C12 5.35 12 3.7 12 2 C11.01 2 10.02 2 9 2 C9 3.32 9 4.64 9 6 C8.1028125 6.86625 8.1028125 6.86625 7.1875 7.75 C4.58365587 10.42823968 3.81750457 12.78450021 2.7109375 16.29296875 C2 18 2 18 0 19 C0 12.73 0 6.46 0 0 Z " fill="#F6DD06" transform="translate(0,0)"/>
<path d="M0 0 C0.33 0 0.66 0 1 0 C1 6.93 1 13.86 1 21 C-4 23 -4 23 -9 23 C-8.67 19.04 -8.34 15.08 -8 11 C-5.69 10.34 -3.38 9.68 -1 9 C-0.67 6.03 -0.34 3.06 0 0 Z " fill="#F2D906" transform="translate(22,0)"/>
<path d="M0 0 C1.32 0 2.64 0 4 0 C4 6.6 4 13.2 4 20 C0.35293732 17.56862488 0.17333353 16.10666735 -1 12 C-1.33 11.01 -1.66 10.02 -2 9 C-1.68699187 1.68699187 -1.68699187 1.68699187 0 0 Z " fill="#F1D906" transform="translate(14,28)"/>
<path d="M0 0 C1.32 0 2.64 0 4 0 C4 0.99 4 1.98 4 3 C4.99 3 5.98 3 7 3 C6.67 4.65 6.34 6.3 6 8 C3.03 7.505 3.03 7.505 0 7 C0 4.69 0 2.38 0 0 Z " fill="#E6CF06" transform="translate(12,0)"/>
<path d="M0 0 C1.98 0 3.96 0 6 0 C5.67 2.97 5.34 5.94 5 9 C4.01 8.34 3.02 7.68 2 7 C2.33 5.68 2.66 4.36 3 3 C2.01 3 1.02 3 0 3 C0 2.01 0 1.02 0 0 Z " fill="#373101" transform="translate(16,0)"/>
<path d="M0 0 C0.33 0.66 0.66 1.32 1 2 C0.67 2.66 0.34 3.32 0 4 C0.66 4.33 1.32 4.66 2 5 C2 5.99 2 6.98 2 8 C2.66 8.33 3.32 8.66 4 9 C4.625 11.0625 4.625 11.0625 5 13 C4.01 13 3.02 13 2 13 C0 7.25 0 7.25 0 5 C-0.66 4.67 -1.32 4.34 -2 4 C-1.34 2.68 -0.68 1.36 0 0 Z " fill="#4D4501" transform="translate(12,35)"/>
<path d="M0 0 C3 2 3 2 3.6875 4.125 C3.8421875 5.053125 3.8421875 5.053125 4 6 C2.68 6.33 1.36 6.66 0 7 C0 4.69 0 2.38 0 0 Z " fill="#D4BE05" transform="translate(0,20)"/>
</svg>
